<svg xmlns="http://www.w3.org/2000/svg" width="29.912" height="37.269" viewBox="0 0 29.912 37.269"><defs><style>.a{fill:#de350b;stroke:#de350b;stroke-width:0.4px;}</style></defs><g transform="translate(-7.8 -1.8)"><path class="a" d="M18.665,31.487H9.229V3.229H32.573V5.846a.614.614,0,0,0,1.229,0V2.614A.614.614,0,0,0,33.187,2H8.614A.614.614,0,0,0,8,2.614V32.1a.614.614,0,0,0,.614.614h10.05a.614.614,0,1,0,0-1.229Z"/><path class="a" d="M48,31.354v.811a.614.614,0,0,0,1.229,0v-.811a.614.614,0,0,0-1.229,0Z" transform="translate(-15.427 -11.084)"/><path class="a" d="M36.609,34a8.533,8.533,0,0,0-5.068,1.665.614.614,0,1,0,.725.989,7.3,7.3,0,0,1,4.343-1.425A7.372,7.372,0,1,1,29.237,42.6a7.3,7.3,0,0,1,1.425-4.343.614.614,0,1,0-.989-.725A8.6,8.6,0,1,0,36.609,34Z" transform="translate(-7.722 -12.342)"/><path class="a" d="M36.957,52.259a.614.614,0,0,0,.866.866,3.072,3.072,0,0,1,4.349,0,.624.624,0,1,0,.9-.866,4.3,4.3,0,0,0-6.082,0Z" transform="translate(-11.111 -18.898)"/><path class="a" d="M46.62,42.339a.614.614,0,0,0-.823-.27L43.339,43.3a.614.614,0,0,0,.276,1.161.571.571,0,0,0,.276-.068l2.457-1.229A.614.614,0,0,0,46.62,42.339Z" transform="translate(-13.5 -15.428)"/><circle class="a" cx="0.5" cy="0.5" r="0.5" transform="translate(31.739 29.43)"/><path class="a" d="M38.323,43.283l-2.457-1.229a.614.614,0,1,0-.553,1.093l2.457,1.229a.571.571,0,0,0,.276.068.614.614,0,0,0,.276-1.161Z" transform="translate(-10.388 -15.414)"/><circle class="a" cx="0.5" cy="0.5" r="0.5" transform="translate(25.739 29.43)"/><path class="a" d="M31.515,10.072a.614.614,0,0,0-.614-.614H19.229V8.229H30.9A.614.614,0,0,0,30.9,7H18.614A.614.614,0,0,0,18,7.614v2.457a.614.614,0,0,0,.614.614H30.9A.614.614,0,0,0,31.515,10.072Z" transform="translate(-3.857 -1.928)"/><path class="a" d="M29.6,17.229A.614.614,0,1,0,29.6,16H21.614a.614.614,0,1,0,0,1.229Z" transform="translate(-5.014 -5.399)"/><path class="a" d="M15,21.614a.614.614,0,0,0,.614.614H27.286a.614.614,0,0,0,0-1.229H15.614A.614.614,0,0,0,15,21.614Z" transform="translate(-2.7 -7.328)"/><path class="a" d="M29.129,26.614A.614.614,0,0,0,28.515,26h-12.9a.614.614,0,0,0,0,1.229h12.9A.614.614,0,0,0,29.129,26.614Z" transform="translate(-2.7 -9.256)"/><path class="a" d="M15.614,31a.614.614,0,1,0,0,1.229H26.672a.614.614,0,1,0,0-1.229Z" transform="translate(-2.7 -11.185)"/><path class="a" d="M22.372,36H15.614a.614.614,0,1,0,0,1.229h6.758a.614.614,0,1,0,0-1.229Z" transform="translate(-2.7 -13.113)"/><path class="a" d="M21.143,42.229a.614.614,0,1,0,0-1.229H15.614a.614.614,0,1,0,0,1.229Z" transform="translate(-2.7 -15.041)"/><path class="a" d="M38,16.529A5.529,5.529,0,1,0,43.529,11,5.529,5.529,0,0,0,38,16.529Zm9.829,0a4.3,4.3,0,1,1-4.3-4.3A4.3,4.3,0,0,1,47.829,16.529Z" transform="translate(-11.57 -3.471)"/><path class="a" d="M44.218,16.347a.617.617,0,0,0-.872.872l1.309,1.3-1.309,1.3a.617.617,0,0,0,.872.872l1.3-1.309,1.3,1.309a.617.617,0,1,0,.872-.872l-1.309-1.3,1.309-1.3a.617.617,0,1,0-.872-.872l-1.3,1.309Z" transform="translate(-13.562 -5.463)"/></g></svg>