<svg id="State" xmlns="http://www.w3.org/2000/svg" xmlns:xlink="http://www.w3.org/1999/xlink"
                        width="40" height="40" viewBox="0 0 40 40">
                        <defs>
                          <clipPath id="clip-path">
                            <circle id="Avatar" cx="20" cy="20" r="20" fill="none" />
                          </clipPath>
                          <clipPath id="clip-path-2">
                            <rect width="40" height="40" fill="none" />
                          </clipPath>
                          <clipPath id="clip-path-3">
                            <rect id="Background" width="40" height="40" fill="#c1c7d0" />
                          </clipPath>
                          <clipPath id="clip-path-4">
                            <circle id="Background-2" data-name="Background" cx="20" cy="20" r="20" fill="#c1c7d0" />
                          </clipPath>
                        </defs>
                        <circle id="Avatar-2" data-name="Avatar" cx="20" cy="20" r="20" fill="none" />
                        <g id="State-2" data-name="State" clip-path="url(#clip-path)">
                          <g id="_Face" data-name="😀 Face" clip-path="url(#clip-path-2)">
                            <rect id="Background-3" data-name="Background" width="40" height="40" fill="#c1c7d0" />
                            <circle id="Background-4" data-name="Background" cx="20" cy="20" r="20" fill="#c1c7d0" />
                            <g clip-path="url(#clip-path-4)">
                              <path id="Body"
                                d="M24.375,6.918a17.228,17.228,0,0,1-12.136,4.957A17.222,17.222,0,0,1,0,6.809V4.75A4.814,4.814,0,0,1,4.875,0H19.5a4.814,4.814,0,0,1,4.875,4.75Z"
                                transform="translate(7.813 25)" fill="#fff" />
                              <path id="Head" d="M7.186,0a7.188,7.188,0,1,0,7.189,7.186A7.186,7.186,0,0,0,7.186,0"
                                transform="translate(12.813 7.5)" fill="#fff" />
                            </g>
                          </g>
                          <g id="State-3" data-name="State" clip-path="url(#clip-path-2)">
                            <rect id="Rectangle_2_Copy_2" data-name="Rectangle 2 Copy 2" width="40" height="40"
                              fill="rgba(66,82,110,0)" />
                          </g>
                        </g>
                      </svg>