<svg xmlns="http://www.w3.org/2000/svg" width="35.844" height="35.844" viewBox="0 0 35.844 35.844"><defs><style>.a{fill:#ffab00;}</style></defs><path class="a" d="M17.922,35.844A17.942,17.942,0,0,1,0,17.922,17.607,17.607,0,0,1,3.048,7.957,1.119,1.119,0,1,1,4.9,9.218a15.376,15.376,0,0,0-2.658,8.7A15.682,15.682,0,1,0,17.922,2.24,15.376,15.376,0,0,0,9.218,4.9a1.119,1.119,0,1,1-1.261-1.85A17.607,17.607,0,0,1,17.922,0a17.922,17.922,0,0,1,0,35.844Z"/><path class="a" d="M11.841,13.24H5.12a1.12,1.12,0,0,1,0-2.24h6.721a1.12,1.12,0,0,1,0,2.24Z" transform="translate(1.974 5.429)"/><path class="a" d="M21.841,13.24H15.12a1.12,1.12,0,1,1,0-2.24h6.721a1.12,1.12,0,0,1,0,2.24Z" transform="translate(6.909 5.429)"/><path class="a" d="M18.828,19.24H9.12a1.12,1.12,0,0,1,0-2.24h9.708a1.12,1.12,0,1,1,0,2.24Z" transform="translate(3.948 8.39)"/><path class="a" d="M4.854,10.974a1.121,1.121,0,0,1-1.12-1.12V7.24H1.12A1.12,1.12,0,0,1,1.12,5H4.854a1.121,1.121,0,0,1,1.12,1.12V9.854A1.121,1.121,0,0,1,4.854,10.974Z" transform="translate(0 2.468)"/><path class="a" d="M4.854,5.974H1.12a1.12,1.12,0,0,1,0-2.24H3.734V1.12a1.12,1.12,0,0,1,2.24,0V4.854A1.121,1.121,0,0,1,4.854,5.974Z"/><path class="a" d="M6.12,10.974A1.121,1.121,0,0,1,5,9.854V6.12A1.121,1.121,0,0,1,6.12,5H9.854a1.12,1.12,0,1,1,0,2.24H7.24V9.854A1.121,1.121,0,0,1,6.12,10.974Z" transform="translate(2.468 2.468)"/><path class="a" d="M9.854,5.974H6.12A1.121,1.121,0,0,1,5,4.854V1.12a1.12,1.12,0,0,1,2.24,0V3.734H9.854a1.12,1.12,0,0,1,0,2.24Z" transform="translate(2.468)"/></svg>