<svg xmlns="http://www.w3.org/2000/svg" width="38.34" height="38.34" viewBox="0 0 38.34 38.34"><defs><style>.a{fill:#ff5900;}</style></defs><g transform="translate(0.001 -0.004)"><g transform="translate(0 8.99)"><g transform="translate(0)"><path class="a" d="M4.572,120H1.127a1.123,1.123,0,0,0,0,2.247H4.572a1.123,1.123,0,0,0,0-2.247Z" transform="translate(-0.004 -120.002)"/></g></g><g transform="translate(32.648 8.99)"><path class="a" d="M440.565,120h-3.444a1.123,1.123,0,0,0,0,2.247h3.444a1.123,1.123,0,0,0,0-2.247Z" transform="translate(-435.998 -120.002)"/></g><g transform="translate(-0.001 13.984)"><g transform="translate(0)"><path class="a" d="M5.383,187.434a1.123,1.123,0,0,0-1.437-.677l-3.2,1.153a1.123,1.123,0,1,0,.761,2.114l3.2-1.152A1.123,1.123,0,0,0,5.383,187.434Z" transform="translate(0 -186.691)"/></g></g><g transform="translate(32.89 2.843)"><path class="a" d="M444.615,38.657a1.122,1.122,0,0,0-1.437-.677l-3.2,1.153a1.123,1.123,0,0,0,.761,2.114l3.2-1.153A1.123,1.123,0,0,0,444.615,38.657Z" transform="translate(-439.234 -37.914)"/></g><g transform="translate(-0.001 2.843)"><g transform="translate(0)"><path class="a" d="M4.705,39.133,1.5,37.98a1.123,1.123,0,0,0-.761,2.114l3.2,1.153a1.123,1.123,0,0,0,.761-2.114Z" transform="translate(0.001 -37.913)"/></g></g><g transform="translate(32.89 13.984)"><path class="a" d="M443.94,187.91l-3.2-1.153a1.123,1.123,0,1,0-.761,2.114l3.2,1.152a1.123,1.123,0,0,0,.762-2.114Z" transform="translate(-439.234 -186.691)"/></g><g transform="translate(7.347 0.004)"><path class="a" d="M122.3,14.606V7.867a3.37,3.37,0,0,0-4.611-3.133A3.37,3.37,0,0,0,113.2,2.487,3.368,3.368,0,0,0,107.7.864a3.368,3.368,0,0,0-5.616,2.51v.754c-3.533,4.791-3.308,4.473-3.37,4.6a5.645,5.645,0,0,0-.036,4.949l3.406,10.1V37.22a1.123,1.123,0,0,0,1.123,1.123h15.725a1.123,1.123,0,0,0,1.123-1.123V31.454h1.123a1.123,1.123,0,0,0,1.123-1.123V25.838a3.374,3.374,0,0,0-2-3.079l1.97-7.881A1.12,1.12,0,0,0,122.3,14.606ZM117.811,36.1H104.332V31.454h13.479Zm2.246-6.889H104.332V24.715h14.6a1.125,1.125,0,0,1,1.123,1.123Zm0-14.74-2,8H104.016l-3.231-9.582a1.106,1.106,0,0,0-.06-.144,3.387,3.387,0,0,1-.039-2.933l1.4-1.9v2.2a1.123,1.123,0,1,0,2.246,0V3.374a1.123,1.123,0,1,1,2.246,0v6.739a1.123,1.123,0,0,0,2.247,0V3.374a1.123,1.123,0,1,1,2.246,0v6.739a1.123,1.123,0,1,0,2.246,0V5.62a1.123,1.123,0,1,1,2.246,0v4.493a1.123,1.123,0,0,0,2.247,0V7.867a1.123,1.123,0,1,1,2.246,0v6.6Z" transform="translate(-98.126 -0.004)"/></g></g></svg>