<svg xmlns="http://www.w3.org/2000/svg" width="36.896" height="36.698" viewBox="0 0 36.896 36.698"><defs><style>.a{fill:#de350b;stroke:#de350b;stroke-width:0.8px;}</style></defs><g transform="translate(0.602 0.4)"><path class="a" d="M.994,29.156a2.994,2.994,0,0,0,4.224-.237c.1-.108.185-.221.278-.331A16.808,16.808,0,0,0,7.18,30.061a4.193,4.193,0,0,0-1.8,3.44v.6a1.8,1.8,0,0,0,1.795,1.8H24.527a1.8,1.8,0,0,0,1.8-1.8V30.888c.072-.046.142-.094.214-.142.062.068.116.141.186.2a2.994,2.994,0,0,0,4.222-.235,19.489,19.489,0,0,0,4.951-12.758,18.96,18.96,0,0,0-5.247-12.9C27.333,1.7,22.858,0,17.347,0A16.741,16.741,0,0,0,1.957,23.355a13.634,13.634,0,0,1-1.2,1.573A3,3,0,0,0,.994,29.156ZM6.578,34.1v-.6a3,3,0,0,1,2.992-3h.6a2.982,2.982,0,0,1,2.639,1.6c-.013.039-.031.08-.042.117a4.107,4.107,0,0,0-.2,1.281v.6a1.779,1.779,0,0,0,.11.6h-5.5A.6.6,0,0,1,6.578,34.1Zm17.949.6H14.356a.6.6,0,0,1-.6-.6v-.6a2.946,2.946,0,0,1,.148-.923,2.789,2.789,0,0,1,.1-.279,3,3,0,0,1,2.743-1.8h.6a3.3,3.3,0,0,1,3.027,2.009c0,.012.015.02.019.032a.578.578,0,0,0,0,.084.6.6,0,0,0,.716.45,16.549,16.549,0,0,0,4.013-1.495V34.1A.6.6,0,0,1,24.527,34.7ZM17.347,1.2C22.526,1.2,26.714,2.78,29.8,5.9a18.01,18.01,0,0,1,4.9,12.039,18.291,18.291,0,0,1-4.645,11.976,1.853,1.853,0,0,1-2.536.14,1.8,1.8,0,0,1-.139-2.536,14.367,14.367,0,0,0,3.64-8.878.6.6,0,0,0-.569-.626.606.606,0,0,0-.626.569,13.17,13.17,0,0,1-3.337,8.138,2.991,2.991,0,0,0-.571,3c-.168.111-.334.228-.5.332a15.408,15.408,0,0,1-4.066,1.718,4.517,4.517,0,0,0-4-2.469h-.6a4.181,4.181,0,0,0-3.289,1.612,4.181,4.181,0,0,0-3.293-1.61h-.6a4.166,4.166,0,0,0-1.16.167A15.549,15.549,0,0,1,17.347,1.2ZM1.652,25.724c.32-.36.616-.736.9-1.118a16.71,16.71,0,0,0,2.13,3.1c-.118.14-.232.283-.352.419a1.853,1.853,0,0,1-2.536.141A1.8,1.8,0,0,1,1.652,25.724Zm0,0" transform="translate(0)"/><path class="a" d="M103.3,93.162a3.8,3.8,0,0,0,2.141.041,4.139,4.139,0,0,0,.975-.376,5.932,5.932,0,0,0,.832-.584.222.222,0,0,0-.18-.392l-.039.007c-.317.061-.6.168-.9.23a6.39,6.39,0,0,1-.864.13,4.073,4.073,0,0,1-1.635-.161,8.293,8.293,0,0,1-2.948-1.874l-.012-.01a.152.152,0,0,0-.246.157,4.373,4.373,0,0,0,2.872,2.833Zm0,0" transform="translate(-93.384 -83.815)"/><path class="a" d="M228.5,92.829a4.14,4.14,0,0,0,.975.376,3.8,3.8,0,0,0,2.141-.041,4.373,4.373,0,0,0,2.872-2.833.152.152,0,0,0-.247-.157l-.011.01a8.294,8.294,0,0,1-2.948,1.874,4.075,4.075,0,0,1-1.635.161,6.384,6.384,0,0,1-.864-.13c-.293-.061-.579-.169-.9-.23l-.039-.008a.223.223,0,0,0-.18.393A5.935,5.935,0,0,0,228.5,92.829Zm0,0" transform="translate(-211.625 -83.817)"/><path class="a" d="M97.484,172.976A5.173,5.173,0,0,0,100.9,171.6a.6.6,0,1,0-.846-.846,3.956,3.956,0,0,1-2.568,1.021,4.018,4.018,0,0,1-2.57-1.022.6.6,0,0,0-.845.847A5.173,5.173,0,0,0,97.484,172.976Zm0,0" transform="translate(-87.316 -158.616)"/><path class="a" d="M236.586,170.758a3.956,3.956,0,0,1-2.568,1.021,4.019,4.019,0,0,1-2.57-1.022.6.6,0,0,0-.845.847,4.936,4.936,0,0,0,6.829,0,.6.6,0,1,0-.846-.846Zm0,0" transform="translate(-214.277 -158.616)"/><path class="a" d="M65.187,240.051a2.387,2.387,0,1,0,3.394-3.331l.521-1.777h2.8l.521,1.777a2.387,2.387,0,1,0,3.394,3.331,2.394,2.394,0,0,0,3.845-2.667,2.387,2.387,0,1,0-1.931-4.346l-3.712-2.781a.6.6,0,1,0-.718.958l4.048,3.032a.566.566,0,0,0,.741-.04l.011.013a1.282,1.282,0,0,1,.1-.082,1.2,1.2,0,1,1,1.363,1.966,1.183,1.183,0,0,1-.908.191.6.6,0,0,0-.468,1.072,1.035,1.035,0,0,1,.242.253,1.2,1.2,0,0,1-1.967,1.364,1.024,1.024,0,0,1-.15-.313.612.612,0,0,0-.608-.442.6.6,0,0,0-.56.5,1.2,1.2,0,1,1-1.862-1.181c.04-.027.082-.051.125-.075.015-.008.023-.022.037-.032a.548.548,0,0,0,.213-.267.572.572,0,0,0,.035-.108.719.719,0,0,0,0-.231c0-.017,0-.033,0-.05l-1.422-4.853a.6.6,0,1,0-1.148.337l.433,1.477h-2.1l.433-1.477a.6.6,0,1,0-1.148-.337l-1.422,4.853c0,.017,0,.033,0,.05a.719.719,0,0,0,0,.231.549.549,0,0,0,.155.294.578.578,0,0,0,.093.081c.014.01.022.024.037.032.042.025.085.048.124.074a1.2,1.2,0,1,1-1.861,1.182.6.6,0,0,0-.56-.5.608.608,0,0,0-.608.442,1.024,1.024,0,0,1-.15.313,1.2,1.2,0,1,1-1.966-1.364,1.035,1.035,0,0,1,.241-.251.6.6,0,0,0-.467-1.072,1.2,1.2,0,1,1,.456-2.157c.037.026.072.055.113.09a.546.546,0,0,0,.074.04.555.555,0,0,0,.089.048.568.568,0,0,0,.152.035.651.651,0,0,0,.068.016c.012,0,.024,0,.036-.006s.032-.005.049-.008a.587.587,0,0,0,.163-.048l.042-.022a.618.618,0,0,0,.068-.035l4.047-3.032a.6.6,0,0,0-.717-.958l-3.713,2.782a2.387,2.387,0,1,0-1.931,4.345,2.394,2.394,0,0,0,3.844,2.667Zm0,0" transform="translate(-55.54 -214.003)"/></g></svg>