<svg xmlns="http://www.w3.org/2000/svg" width="27.59" height="41.56" viewBox="0 0 27.59 41.56"><defs><style>.a{fill:#7f8a9d;stroke:#7f8a9d;stroke-width:0.7px;}</style></defs><g transform="translate(-87.8 0.35)"><path class="a" d="M219.819,320a.6.6,0,0,0,.014-.59c-1.006-1.881-2.1-2.275-2.847-2.275s-1.841.395-2.847,2.275a.6.6,0,0,0,.528.881h4.638A.6.6,0,0,0,219.819,320Zm-4.051-.906a1.356,1.356,0,0,1,2.438,0Z" transform="translate(-115.823 -291.828)"/><path class="a" d="M134.688,153.859l-2.224-1.011a.593.593,0,0,0-.2-.089l-1.991-.905a1.323,1.323,0,0,1-.774-1.2v-1.837a7.156,7.156,0,0,0,1.013-.791,6.919,6.919,0,0,0,2.1-3.9q.48.527.943,1.1a.6.6,0,0,0,1.066-.374v-5.118a8.908,8.908,0,0,0-3.631-7.176,5.4,5.4,0,0,0-10.567,0,8.908,8.908,0,0,0-3.631,7.176,6.93,6.93,0,0,0,.7,3.058c0,.008.009.016.013.024a1.884,1.884,0,0,0,1.346,1.3,7.263,7.263,0,0,0,3.057,4.655v1.883a1.323,1.323,0,0,1-.774,1.2l-4.412,2.005a3.164,3.164,0,0,0-1.851,2.874v1.551a.6.6,0,1,0,1.2,0v-1.551a1.964,1.964,0,0,1,1.149-1.785l1.92-.873a8.914,8.914,0,0,0,13.136,0l1.92.872a1.964,1.964,0,0,1,1.149,1.785v1.551a.6.6,0,1,0,1.2,0v-1.551A3.164,3.164,0,0,0,134.688,153.859Zm-8.983-24.4a4.187,4.187,0,0,1,3.671,2.153,8.91,8.91,0,0,0-7.342,0A4.188,4.188,0,0,1,125.7,129.456Zm-5.742,14.039a.6.6,0,0,0-.594-.522h-.062a.681.681,0,1,1,0-1.362h.192a.6.6,0,0,0,.562-.394,2.636,2.636,0,0,1,.906-1.215,10.5,10.5,0,0,0,2.324-2.329l.227.093a.6.6,0,1,0,.46-1.105,17.827,17.827,0,0,0-1.956-.7.6.6,0,0,0-.315,1.155s.153.043.418.131a9.7,9.7,0,0,1-1.874,1.8,3.837,3.837,0,0,0-1.153,1.383,1.868,1.868,0,0,0-1,.435,5.839,5.839,0,0,1-.109-1.128,7.718,7.718,0,0,1,15.436,0v3.5a27.014,27.014,0,0,0-7.118-5.47.6.6,0,0,0-.563,1.056,26.622,26.622,0,0,1,2.782,1.713l-1.167.583a.6.6,0,0,0,0,1.071l1.279.64a.6.6,0,1,0,.535-1.071l-.209-.1.209-.1a.6.6,0,0,0,.291-.322,25.074,25.074,0,0,1,2.041,1.758v.054a5.671,5.671,0,0,1-1.808,4.112,5.791,5.791,0,0,1-4.377,1.568A5.9,5.9,0,0,1,119.963,143.495Zm5.742,12.272a7.709,7.709,0,0,1-5.412-2.216l1.336-.607a2.523,2.523,0,0,0,1.476-2.292v-1.24a6.69,6.69,0,0,0,2.137.5q.236.015.47.015a6.987,6.987,0,0,0,2.593-.494v1.219a2.523,2.523,0,0,0,1.476,2.292l1.336.607A7.692,7.692,0,0,1,125.7,155.767Z" transform="translate(-24.541 -118.023)"/><path class="a" d="M205.521,281.8a.6.6,0,0,0-.331-.535l-1.279-.64a.6.6,0,0,0-.535,1.071l.209.1-.209.1a.6.6,0,1,0,.535,1.071l1.279-.64A.6.6,0,0,0,205.521,281.8Z" transform="translate(-105.678 -258.173)"/><path class="a" d="M235.111,8.275a.6.6,0,1,0,1.2,0c0-.374.151-.541.464-.855a2.185,2.185,0,0,0,0-3.4c-.314-.314-.465-.481-.465-.857s.151-.543.465-.857a2.246,2.246,0,0,0,.815-1.7.6.6,0,1,0-1.2,0c0,.376-.151.543-.465.857a2.246,2.246,0,0,0-.815,1.7,2.247,2.247,0,0,0,.815,1.7c.314.314.465.481.465.857s-.151.541-.464.855A2.243,2.243,0,0,0,235.111,8.275Z" transform="translate(-135.186)"/><path class="a" d="M136.952,41.152c.409.12.6.186.739.474s.084.476-.065.874a2.089,2.089,0,0,0-.014,1.828.6.6,0,1,0,1.071-.535c-.144-.287-.084-.476.065-.874A2.015,2.015,0,0,0,137.291,40c-.409-.12-.6-.186-.739-.474s-.085-.477.064-.876a2.093,2.093,0,0,0,.013-1.83.6.6,0,1,0-1.071.535c.144.288.085.477-.064.876a2.016,2.016,0,0,0,1.458,2.917Z" transform="translate(-43.314 -33.581)"/><path class="a" d="M90.452,141.683a1.471,1.471,0,0,0,.288,1.532.6.6,0,0,0,.843-.044.6.6,0,0,0-.027-.831,1.885,1.885,0,0,1,.063-.393,1.285,1.285,0,0,0-1.842-1.658,2.43,2.43,0,0,1-.355.1,2.44,2.44,0,0,1,.064-.364,1.472,1.472,0,0,0-.289-1.532.6.6,0,0,0-.816.876,1.883,1.883,0,0,1-.063.394,1.286,1.286,0,0,0,1.843,1.659,2.441,2.441,0,0,1,.354-.1A2.458,2.458,0,0,1,90.452,141.683Z" transform="translate(0 -127.302)"/><path class="a" d="M308.432,50.622a.6.6,0,0,0,.8-.268c.144-.287.33-.352.738-.472a2.015,2.015,0,0,0,1.458-2.915c-.149-.4-.208-.588-.064-.876s.331-.354.74-.474a2.092,2.092,0,0,0,1.472-1.087.6.6,0,1,0-1.071-.535c-.144.288-.331.354-.739.474a2.016,2.016,0,0,0-1.458,2.917c.149.4.209.588.064.876s-.33.352-.738.472a2.09,2.09,0,0,0-1.471,1.086A.6.6,0,0,0,308.432,50.622Z" transform="translate(-202.351 -40.179)"/><path class="a" d="M363.1,148.971a.6.6,0,0,0-.829-.062,1.878,1.878,0,0,1-.385-.1,1.286,1.286,0,0,0-1.843,1.659,2.443,2.443,0,0,1,.064.363,2.45,2.45,0,0,1-.354-.1,1.47,1.47,0,0,0-1.553.126.6.6,0,0,0,.785.9,1.9,1.9,0,0,1,.384.1,2.455,2.455,0,0,0,.783.165,1.111,1.111,0,0,0,.77-.291,1.472,1.472,0,0,0,.289-1.532,2.445,2.445,0,0,1-.064-.364,2.438,2.438,0,0,1,.355.1,1.472,1.472,0,0,0,1.554-.127A.6.6,0,0,0,363.1,148.971Z" transform="translate(-248.268 -136.779)"/></g></svg>