<svg xmlns="http://www.w3.org/2000/svg" width="40.05" height="40.256" viewBox="0 0 40.05 40.256"><defs><style>.a{fill:#36b37e;stroke:#36b37e;stroke-width:0.7px;}</style></defs><g transform="translate(-31.65 -30.872)"><path class="a" d="M71.78,68.174a.666.666,0,0,0-.942,0l-2.253,2.253L66.294,68.08a12.037,12.037,0,0,1-3.3-6.812L61.447,49.4a2.5,2.5,0,0,0-4.329-1.353,2.552,2.552,0,0,0-4.407,1.393L51.137,61.194a12.026,12.026,0,0,1-3.416,6.889l-2.2,2.186-2.1-2.1a.666.666,0,0,0-.942,0l-2.4,2.4h0l-1.715,1.716a.666.666,0,0,0,0,.942l10.69,10.69a.666.666,0,0,0,.942,0l1.623-1.623.092-.092,2.4-2.4a.666.666,0,0,0,0-.942l-2.276-2.276.818-.727h1.019a4.121,4.121,0,0,0,3.579-2.084,4.686,4.686,0,0,0,3.9,2.084h.313l.879.8-2.2,2.2a.666.666,0,0,0,0,.942l4.112,4.112a.666.666,0,0,0,.942,0l10.69-10.69a.666.666,0,0,0,0-.942ZM49.539,82.505,39.79,72.757l.774-.774,9.748,9.748Zm1.716-1.716-9.748-9.748,1.454-1.454,9.748,9.748Zm5.214-9.047a2.79,2.79,0,0,1-2.787,2.787H52.41a.666.666,0,0,0-.442.168l-1.066.947-4.433-4.433,2.193-2.184a13.365,13.365,0,0,0,3.8-7.656l1.574-11.757a1.224,1.224,0,0,1,2.437.163v5.439a3.4,3.4,0,0,0-2.837,2.891l-.847,6.306a.666.666,0,0,0,.572.749.678.678,0,0,0,.089.006.666.666,0,0,0,.659-.577l.847-6.306a2.06,2.06,0,0,1,1.517-1.711v14.6c0,.14.007.278.019.415A.653.653,0,0,0,56.469,71.742ZM62.176,74.7a.665.665,0,0,0-.449-.174h-.571A3.359,3.359,0,0,1,57.8,71.174V56.6a1.665,1.665,0,0,1,1.107,1.347L59.8,64.59a.666.666,0,0,0,.659.577.679.679,0,0,0,.089-.006.666.666,0,0,0,.572-.749l-.892-6.647A3,3,0,0,0,57.8,55.222v-5.5a1.168,1.168,0,0,1,2.326-.151l1.545,11.87a13.378,13.378,0,0,0,3.67,7.571l2.3,2.358-4.352,4.353Zm9.133-5.116,1.454,1.454L63.015,80.79l-1.454-1.454ZM64.73,82.505l-.774-.774L73.7,71.983l.774.774Z" transform="translate(-5.153 -13.335)"/><path class="a" d="M52.666,34.552a.666.666,0,0,0,.666-.666v-2a.666.666,0,1,0-1.332,0v2A.666.666,0,0,0,52.666,34.552Z" transform="translate(-16.67)"/><path class="a" d="M53.332,61.886v-2a.666.666,0,1,0-1.332,0v2a.666.666,0,0,0,1.332,0Z" transform="translate(-16.67 -23.338)"/><path class="a" d="M35.33,51.888a.666.666,0,0,0-.666-.666h-2a.666.666,0,1,0,0,1.332h2A.666.666,0,0,0,35.33,51.888Z" transform="translate(0 -16.67)"/><path class="a" d="M60.666,52.554h2a.666.666,0,1,0,0-1.332h-2a.666.666,0,0,0,0,1.332Z" transform="translate(-23.338 -16.67)"/><path class="a" d="M93.015,84.454a.666.666,0,1,0-.917-.216A.666.666,0,0,0,93.015,84.454Z" transform="translate(-50.008 -43.341)"/><path class="a" d="M216.315,115.321a.666.666,0,1,0,.917.216A.666.666,0,0,0,216.315,115.321Z" transform="translate(-153.361 -70.013)"/><path class="a" d="M261.232,47.538a.666.666,0,1,0-.216.917A.666.666,0,0,0,261.232,47.538Z" transform="translate(-190.034 -13.336)"/><path class="a" d="M46.332,127.88a2.33,2.33,0,1,0-1.987-1.1,2.317,2.317,0,0,0,1.987,1.1Zm-.976-2.56a1,1,0,1,1,.123.755A.993.993,0,0,1,45.355,125.32Z" transform="translate(-9.998 -76.677)"/><path class="a" d="M204.345,54.776a2.331,2.331,0,1,0-.286-1.761,2.333,2.333,0,0,0,.286,1.761Zm1.011-1.455a1,1,0,1,1,.123.755A.993.993,0,0,1,205.355,53.32Z" transform="translate(-143.356 -16.666)"/></g></svg>