<svg xmlns="http://www.w3.org/2000/svg" width="23.747" height="56.453" viewBox="0 0 23.747 56.453"><defs><style>.a{fill:#42526e;stroke:#42526e;stroke-width:0.7px;}</style></defs><g transform="translate(-149.84 0.35)"><g transform="translate(150.19 17.967)"><g transform="translate(0)"><path class="a" d="M172.675,201.126l-2.708-.9v-8.817a.814.814,0,0,0-.018-.169l-1.057-5h.292a.817.817,0,0,0,.8-.988c-.01-.045-.862-4.017-1.279-6.044a6.261,6.261,0,0,0-1.737-11.982,3,3,0,0,0-2.892-2.22h-5.445a3,3,0,0,0-2.892,2.22,6.261,6.261,0,0,0-1.7,12c-.023.238-.037.478-.037.719v5.481a.817.817,0,0,0,.817.817h2.45v14.057l-2.708.9a.817.817,0,1,0,.516,1.55l3.267-1.089a.817.817,0,0,0,.558-.775V186.234h8.321l1.111,5.258v9.32a.817.817,0,0,0,.558.775l3.267,1.089a.817.817,0,0,0,.517-1.55Zm-15.407-33.131a1.363,1.363,0,0,1,1.361-1.361h5.445a1.363,1.363,0,0,1,1.361,1.361V174.8h-8.167Zm-2.878,9.588a4.627,4.627,0,0,1,1.245-8.7v6.434A7.341,7.341,0,0,0,154.39,177.582Zm13.493,7.018H155.635v-4.664h0a5.707,5.707,0,0,1,1.2-3.5h9.03a5.886,5.886,0,0,1,1.105,2.451c.241,1.207.87,4.164,1.2,5.716Zm.426-7.016a7.421,7.421,0,0,0-1.241-2.265v-6.434a4.627,4.627,0,0,1,1.241,8.7Z" transform="translate(-150.19 -165)"/></g></g><g transform="translate(153.185)"><g transform="translate(0)"><path class="a" d="M185.857,0a8.167,8.167,0,1,0,8.167,8.167A8.176,8.176,0,0,0,185.857,0Zm0,14.7a6.533,6.533,0,1,1,6.533-6.533A6.541,6.541,0,0,1,185.857,14.7Z" transform="translate(-177.69)"/></g></g><g transform="translate(160.535 4.9)"><g transform="translate(0)"><path class="a" d="M250.09,47.45h-3.267V45.817a.817.817,0,1,0-1.633,0v2.45a.817.817,0,0,0,.817.817h4.083a.817.817,0,0,0,0-1.633Z" transform="translate(-245.19 -45)"/></g></g></g></svg>