<svg xmlns="http://www.w3.org/2000/svg" width="33.612" height="33.612" viewBox="0 0 33.612 33.612"><defs><style>.a{fill:#0052cc;}</style></defs><circle class="a" cx="1.641" cy="1.641" r="1.641" transform="translate(15.165 23.207)"/><path class="a" d="M16.806,0A16.806,16.806,0,1,0,33.612,16.806,16.8,16.8,0,0,0,16.806,0Zm0,30.986a14.18,14.18,0,1,1,14.18-14.18A14.172,14.172,0,0,1,16.806,30.986Z"/><path class="a" d="M181.252,128.5A5.258,5.258,0,0,0,176,133.752a1.313,1.313,0,0,0,2.626,0,2.626,2.626,0,1,1,2.626,2.626,1.313,1.313,0,0,0-1.313,1.313v3.282a1.313,1.313,0,1,0,2.626,0v-2.136a5.252,5.252,0,0,0-1.313-10.338Z" transform="translate(-164.446 -120.064)"/></svg>