<svg xmlns="http://www.w3.org/2000/svg" width="34.177" height="34.177" viewBox="0 0 34.177 34.177"><defs><style>.a{fill:#ff8469;}</style></defs><g transform="translate(12.815 4.008)"><path class="a" d="M196.252,60.051a4.278,4.278,0,0,0-4.273,4.273h2a2.271,2.271,0,1,1,2.271,2.271h-1v3.832h2V68.48a4.274,4.274,0,0,0-1-8.429Z" transform="translate(-191.979 -60.051)"/></g><path class="a" d="M26.111,18.047a11.282,11.282,0,1,0-18.046,0L0,22.546v11.63H34.177V22.546Zm-18.3-6.765a9.279,9.279,0,1,1,9.279,9.279A9.29,9.29,0,0,1,7.809,11.282Zm6.011,10.8L11.792,23.1l-.519-2.151A11.225,11.225,0,0,0,13.82,22.08Zm-.866,10.094H8.015V27.821h-2v4.353H2V23.722l6.945-3.875,1.489,6.169,3.384-1.7Zm2.015,0,.985-8.923,1.135-.569,1.137.57.985,8.922ZM22.9,20.946,22.384,23.1,20.356,22.08A11.226,11.226,0,0,0,22.9,20.946Zm9.27,11.228h-4.01V27.821h-2v4.353H21.225l-.867-7.853,3.382,1.7,1.489-6.169,6.945,3.875Z"/><g transform="translate(16.087 16.552)"><rect class="a" width="2.003" height="2.004"/></g></svg>