<svg xmlns="http://www.w3.org/2000/svg" width="29.53" height="38.001" viewBox="0 0 29.53 38.001"><defs><style>.a{fill:#7f8a9d;}</style></defs><g transform="translate(-57.065)"><g transform="translate(57.065)"><g transform="translate(0)"><path class="a" d="M85.971,5.958,80.918.69A2.252,2.252,0,0,0,79.3,0H59.307a2.244,2.244,0,0,0-2.242,2.242V35.759A2.244,2.244,0,0,0,59.307,38H84.354A2.244,2.244,0,0,0,86.6,35.759V7.509A2.232,2.232,0,0,0,85.971,5.958ZM79.981,2.931l3.747,3.907H79.981Zm4.386,32.828a.014.014,0,0,1-.013.013H59.307a.013.013,0,0,1-.013-.013V2.242a.013.013,0,0,1,.013-.013H77.752V7.919c0,.005,0,.011,0,.016s0,.011,0,.016a1.114,1.114,0,0,0,1.114,1.114h5.5V35.759Z" transform="translate(-57.065)"/></g></g><g transform="translate(63.59 12.373)"><path class="a" d="M149.491,169.639l1.036-1.036a1.114,1.114,0,0,0-1.576-1.576l-1.036,1.036-1.036-1.036A1.114,1.114,0,1,0,145.3,168.6l1.036,1.036-1.036,1.036a1.114,1.114,0,0,0,1.576,1.576l1.036-1.036,1.036,1.036a1.114,1.114,0,1,0,1.576-1.576Z" transform="translate(-144.977 -166.701)"/></g><g transform="translate(72.813 12.373)"><g transform="translate(0)"><path class="a" d="M276.617,167.027a1.114,1.114,0,0,0-1.576,0l-2.861,2.861-1.037-1.037a1.114,1.114,0,0,0-1.576,1.576l1.824,1.824a1.11,1.11,0,0,0,.788.326h0a1.111,1.111,0,0,0,.788-.326l3.647-3.647A1.114,1.114,0,0,0,276.617,167.027Z" transform="translate(-269.242 -166.7)"/></g></g><g transform="translate(63.052 21.898)"><g transform="translate(0)"><path class="a" d="M143.571,295.033h-4.723a1.114,1.114,0,1,0,0,2.228h4.723a1.114,1.114,0,1,0,0-2.228Z" transform="translate(-137.734 -295.033)"/></g></g><g transform="translate(63.052 25.474)"><g transform="translate(0)"><path class="a" d="M143.571,343.22h-4.723a1.114,1.114,0,1,0,0,2.228h4.723a1.114,1.114,0,1,0,0-2.228Z" transform="translate(-137.734 -343.22)"/></g></g><g transform="translate(63.052 29.145)"><g transform="translate(0)"><path class="a" d="M143.571,392.685h-4.723a1.114,1.114,0,0,0,0,2.228h4.723a1.114,1.114,0,1,0,0-2.228Z" transform="translate(-137.734 -392.685)"/></g></g><g transform="translate(72.974 21.898)"><g transform="translate(0)"><path class="a" d="M277.255,295.033h-4.723a1.114,1.114,0,1,0,0,2.228h4.723a1.114,1.114,0,1,0,0-2.228Z" transform="translate(-271.418 -295.033)"/></g></g><g transform="translate(72.974 25.474)"><g transform="translate(0)"><path class="a" d="M277.255,343.22h-4.723a1.114,1.114,0,0,0,0,2.228h4.723a1.114,1.114,0,1,0,0-2.228Z" transform="translate(-271.418 -343.22)"/></g></g></g></svg>