<svg xmlns="http://www.w3.org/2000/svg" width="35.284" height="36.71" viewBox="0 0 35.284 36.71"><defs><style>.a{fill:#36b37e;stroke:#36b37e;}</style></defs><g transform="translate(-9.72 0.5)"><path class="a" d="M370.863,36.641a2.428,2.428,0,0,0-2.426,2.426.523.523,0,1,0,1.046,0,1.379,1.379,0,1,1,1.379,1.379h-.332a.523.523,0,0,0-.523.523v1.79a.523.523,0,1,0,1.046,0V41.485a2.426,2.426,0,0,0-.191-4.844Z" transform="translate(-333.233 -34.085)"/><path class="a" d="M391.477,143.284a.523.523,0,0,0-.523.523v.153a.523.523,0,1,0,1.046,0v-.153A.523.523,0,0,0,391.477,143.284Z" transform="translate(-354.179 -133.29)"/><path class="a" d="M42.22,0H33.04a2.287,2.287,0,0,0-2.284,2.284V6.423a9.517,9.517,0,0,0-7.819-4.095H20.6A7.858,7.858,0,0,0,13.9,6.1a4.487,4.487,0,0,0-3.15,4.431l.132,4.565a2.084,2.084,0,0,0-.662,1.524v.491a2.092,2.092,0,0,0,2.09,2.09h1.4a8.375,8.375,0,0,0,1.55,2.457L12.87,24.971a.524.524,0,0,0-.082.174l-2.413,9.282a1.025,1.025,0,0,0,.992,1.283H30.826a1.261,1.261,0,0,0,1.258-1.352l-.2-2.711a5.1,5.1,0,0,0-.542-1.952.523.523,0,0,0-.933.474,4.055,4.055,0,0,1,.431,1.554l.2,2.711a.215.215,0,0,1-.214.23H28.413V32.527a.523.523,0,0,0-1.046,0v2.137H15.913l1.335-5.134a.038.038,0,0,1,.037-.029H19.6a2.776,2.776,0,0,0,1.3-.322,5.753,5.753,0,0,0,1.026.092,5.612,5.612,0,0,0,3.892-1.548h0c.1.021.025.006,1.574.249a4.063,4.063,0,0,1,1.582.6.523.523,0,1,0,.566-.88,5.1,5.1,0,0,0-1.986-.755,14.665,14.665,0,0,1-1.68-.287,1,1,0,0,1-.642-.925A1.723,1.723,0,0,0,26.2,23.6a9.27,9.27,0,0,0,3.929-4.4h.985a2.092,2.092,0,0,0,2.09-2.09V16.62a2.087,2.087,0,0,0-.748-1.6V13.673a2.283,2.283,0,0,0,.582.076h1.647a.346.346,0,0,1,.345.345v1.486a.84.84,0,0,0,.575.8.867.867,0,0,0,.281.047.838.838,0,0,0,.666-.331l1.731-2.23a.313.313,0,0,1,.248-.122H42.22A2.287,2.287,0,0,0,44.5,11.464V2.284A2.287,2.287,0,0,0,42.22,0ZM11.266,17.111V16.62a1.045,1.045,0,0,1,1.044-1.044h.849a8.586,8.586,0,0,0,.215,2.579H12.31a1.045,1.045,0,0,1-1.044-1.043ZM21.94,28.224a2.776,2.776,0,0,0,.45-1.517v-.836h1.8a2.045,2.045,0,0,0,.632,1.334A4.585,4.585,0,0,1,21.94,28.224Zm2.588-3.4H22.271a.929.929,0,0,0-.928.928v.954A1.749,1.749,0,0,1,19.6,28.455H17.285a1.085,1.085,0,0,0-1.05.812l-1.4,5.4H11.395l2.381-9.16,4.005-5.548a.689.689,0,0,1,.452-.279.7.7,0,0,1,.525.126l.026.019a.651.651,0,0,1,.27.516.643.643,0,0,1-.118.394l-.975,1.393a.844.844,0,0,0,.692,1.33h5.907a.685.685,0,0,1,.685.691A.7.7,0,0,1,24.528,24.825Zm7.632-7.714a1.045,1.045,0,0,1-1.043,1.043h-.646a7.862,7.862,0,0,0,.229-1.887c0-.233,0-.464-.014-.691h.431A1.045,1.045,0,0,1,32.16,16.62ZM31.117,14.53h-.506a13.974,13.974,0,0,0-.28-1.7,2.467,2.467,0,0,0-2.257-1.889A16.436,16.436,0,0,1,22.1,9.424a1.19,1.19,0,0,0-1.482.4.747.747,0,0,1-.6.3,2.1,2.1,0,0,1-1.267-.633,10.755,10.755,0,0,1-1.034-1.034,1.366,1.366,0,0,0-1.022-.462h0a1.359,1.359,0,0,0-1.016.457,8.913,8.913,0,0,0-1.3,1.938.523.523,0,0,0,.936.467A7.865,7.865,0,0,1,16.46,9.144a.308.308,0,0,1,.233-.1.318.318,0,0,1,.239.109,11.786,11.786,0,0,0,1.136,1.134,3.145,3.145,0,0,0,1.936.886,1.791,1.791,0,0,0,1.477-.764.141.141,0,0,1,.172-.032,17.494,17.494,0,0,0,6.362,1.616,1.415,1.415,0,0,1,1.3,1.081,13.265,13.265,0,0,1,.3,2.022c.028.377.042.773.042,1.175a6.756,6.756,0,0,1-.376,2.238,8.164,8.164,0,0,1-3.692,4.241,1.719,1.719,0,0,0-1.027-.337H19.04l.753-1.076a1.708,1.708,0,0,0-.394-2.358l-.025-.019a1.743,1.743,0,0,0-2.441.387l-1.042,1.443A7.2,7.2,0,0,1,14.567,18.5a7.937,7.937,0,0,1-.333-3.414,13.205,13.205,0,0,1,.31-2.067.523.523,0,1,0-1.018-.24,13.935,13.935,0,0,0-.292,1.746H12.31a2.09,2.09,0,0,0-.4.038L11.8,10.5a3.446,3.446,0,0,1,2.581-3.45A.523.523,0,0,0,14.7,6.8a6.808,6.808,0,0,1,5.9-3.429h2.339a8.484,8.484,0,0,1,8.475,8.475v2.7a2.1,2.1,0,0,0-.3-.021Zm12.342-3.065A1.239,1.239,0,0,1,42.22,12.7H38.534a1.352,1.352,0,0,0-1.074.526l-1.381,1.779v-.914A1.393,1.393,0,0,0,34.687,12.7H33.04a1.223,1.223,0,0,1-.582-.145V11.85A9.473,9.473,0,0,0,31.8,8.376V2.284A1.239,1.239,0,0,1,33.04,1.046h9.18a1.24,1.24,0,0,1,1.239,1.238Z" transform="translate(0)"/><path class="a" d="M133.129,218.914a.523.523,0,0,0,.523-.523v-.584a.523.523,0,1,0-1.046,0v.584A.523.523,0,0,0,133.129,218.914Z" transform="translate(-113.85 -202.129)"/><path class="a" d="M245.206,218.914a.523.523,0,0,0,.523-.523v-.584a.523.523,0,1,0-1.046,0v.584A.523.523,0,0,0,245.206,218.914Z" transform="translate(-218.11 -202.129)"/><path class="a" d="M172.715,259.5a1.907,1.907,0,0,1,2.091,0,.523.523,0,0,0,.527-.9,2.972,2.972,0,0,0-3.145,0,.523.523,0,1,0,.527.9Z" transform="translate(-150.43 -240.144)"/></g></svg>