<svg xmlns="http://www.w3.org/2000/svg" width="42.011" height="40.465" viewBox="0 0 42.011 40.465"><defs><style>.a{fill:#ffab00;}</style></defs><path class="a" d="M93.5,131.792v13.476A3.616,3.616,0,0,0,91,148.66v3.6h27.462v-3.6a3.616,3.616,0,0,0-2.5-3.391V131.792a11.244,11.244,0,0,0-22.469,0Zm22.469,18.067H93.5v-1.2a1.226,1.226,0,0,1,1.248-1.2h19.973a1.226,1.226,0,0,1,1.248,1.2ZM104.731,123.4a8.581,8.581,0,0,1,8.738,8.394v13.27H95.993v-13.27A8.581,8.581,0,0,1,104.731,123.4Zm0,0" transform="translate(-83.725 -111.792)"/><path class="a" d="M241,211h2.4v7.195H241Zm0,0" transform="translate(-221.193 -194.365)"/><path class="a" d="M241,331h2.4v2.4H241Zm0,0" transform="translate(-221.193 -304.859)"/><path class="a" d="M0,241H4.876v2.4H0Zm0,0" transform="translate(0 -221.967)"/><path class="a" d="M451,241h4.876v2.4H451Zm0,0" transform="translate(-413.865 -221.967)"/><path class="a" d="M386.669,65.078l1.7,1.7-3.392,3.392-1.7-1.7Zm0,0" transform="translate(-351.556 -59.876)"/><path class="a" d="M68.474,70.17l-3.392-3.392,1.7-1.7,3.392,3.392Zm0,0" transform="translate(-59.879 -59.879)"/><path class="a" d="M241,0h2.4V4.876H241Zm0,0" transform="translate(-221.193)"/></svg>